<?xml version="1.0" encoding="iso-8859-1"?>
<!-- Generator: Adobe Illustrator 19.0.0, SVG Export Plug-In . SVG Version: 6.00 Build 0)  -->
<svg version="1.1" id="Layer_1" xmlns="http://www.w3.org/2000/svg" xmlns:xlink="http://www.w3.org/1999/xlink" x="0px" y="0px"
	 viewBox="0 0 491.53 491.53" style="enable-background:new 0 0 491.53 491.53;" xml:space="preserve">
<circle style="fill:#3A556A;" cx="332.759" cy="47.77" r="47.77"/>
<circle style="fill:#FFFFFF;" cx="332.759" cy="47.77" r="40.822"/>
<g>
	<rect x="331.607" y="9.8" style="fill:#E1E6E9;" width="2.304" height="5.816"/>
	<rect x="331.607" y="79.918" style="fill:#E1E6E9;" width="2.304" height="5.816"/>
	<rect x="364.923" y="46.592" style="fill:#E1E6E9;" width="5.816" height="2.304"/>
	<rect x="294.779" y="46.618" style="fill:#E1E6E9;" width="5.816" height="2.304"/>
	
		<rect x="350.264" y="15.17" transform="matrix(-0.8471 -0.5315 0.5315 -0.8471 639.4854 220.1585)" style="fill:#E1E6E9;" width="2.304" height="5.816"/>
	
		<rect x="312.989" y="74.566" transform="matrix(-0.8471 -0.5315 0.5315 -0.8471 539.0676 310.0578)" style="fill:#E1E6E9;" width="2.304" height="5.816"/>
	
		<rect x="361.307" y="63.506" transform="matrix(0.5315 -0.8471 0.8471 0.5315 113.5648 338.1481)" style="fill:#E1E6E9;" width="2.304" height="5.816"/>
	
		<rect x="301.93" y="26.208" transform="matrix(0.5315 -0.8471 0.8471 0.5315 117.3403 270.376)" style="fill:#E1E6E9;" width="2.304" height="5.816"/>
	
		<rect x="362.884" y="28.996" transform="matrix(-0.4525 -0.8917 0.8917 -0.4525 500.3278 370.969)" style="fill:#E1E6E9;" width="2.304" height="5.816"/>
	
		<rect x="300.354" y="60.748" transform="matrix(-0.4525 -0.8917 0.8917 -0.4525 381.185 361.329)" style="fill:#E1E6E9;" width="2.304" height="5.816"/>
	
		<rect x="347.461" y="76.125" transform="matrix(0.8917 -0.4525 0.4525 0.8917 1.9739 166.3177)" style="fill:#E1E6E9;" width="2.304" height="5.816"/>
	
		<rect x="315.723" y="13.617" transform="matrix(0.8917 -0.4525 0.4525 0.8917 26.8257 145.1881)" style="fill:#E1E6E9;" width="2.304" height="5.816"/>
</g>
<g>
	<path style="fill:#3A556A;" d="M332.76,22.948c-0.896,0-1.622,0.727-1.622,1.623v21.574c0,0.896,0.726,1.623,1.622,1.623
		s1.623-0.727,1.623-1.623V24.571C334.383,23.675,333.656,22.948,332.76,22.948z"/>
	<path style="fill:#3A556A;" d="M350.014,47.767c0-0.896-0.727-1.623-1.623-1.623h-14.025c-0.896,0-1.623,0.726-1.623,1.623
		c0,0.896,0.727,1.623,1.623,1.623h14.025C349.288,49.39,350.014,48.663,350.014,47.767z"/>
</g>
<polygon style="fill:#E56353;" points="321.258,61.499 328.676,54.081 328.13,53.535 358.097,23.568 357.005,22.476 327.038,52.443 
	326.492,51.897 319.074,59.315 "/>
<circle style="fill:#FCD462;" cx="332.759" cy="47.77" r="3.144"/>
<polygon style="fill:#EBF0F3;" points="139.006,291.53 141.394,283.729 155.321,244.124 156.126,234.301 150.462,226.018 
	120.935,226.018 113.544,236.914 123.802,291.53 "/>
<rect x="120.893" y="215.091" style="fill:#F6C358;" width="29.609" height="25.651"/>
<polygon style="fill:#E56353;" points="130.463,240.738 126.614,246.58 130.463,252.422 140.932,252.422 144.781,246.58 
	140.932,240.738 "/>
<g>
	<polygon style="fill:#E1E6E9;" points="115.269,234.302 120.935,226.018 132.535,240.701 123.179,257.093 	"/>
	<polygon style="fill:#E1E6E9;" points="157.701,233.69 150.461,226.018 138.861,240.701 147.088,255.116 	"/>
</g>
<polygon style="fill:#D15241;" points="145.917,291.53 140.933,252.422 130.463,252.422 125.477,291.53 "/>
<path style="fill:#3A556A;" d="M197.143,263.532c0,0-2.164-14.192-16.595-17.8l-5.552-1.284c-4.543-1.052-8.754-3.219-12.251-6.307
	l-5.042-4.451l-0.168,0.532l-19.389,57.308h64.395L197.143,263.532z"/>
<path style="fill:#2F4859;" d="M141.652,291.53c6.789-12.315,15.831-26.553,24.327-32.949c0,0-2.865-3.288-7.681-5.488
	c0,0,7.24-1.807,9.774-3.977c0,0-4.744-10.649-10.37-15.426c0,0-17.174,31.206-24.072,57.84H141.652z"/>
<path style="fill:#3A556A;" d="M115.849,234.222l-0.168-0.532l-5.042,4.451c-3.497,3.088-7.709,5.255-12.254,6.307l-5.55,1.284
	c-14.431,3.608-16.595,17.8-16.595,17.8l-5.397,27.998h64.395L115.849,234.222z"/>
<path style="fill:#2F4859;" d="M131.729,291.53c-6.789-12.315-15.831-26.553-24.327-32.949c0,0,2.865-3.288,7.681-5.488
	c0,0-7.24-1.807-9.774-3.977c0,0,4.744-10.649,10.37-15.426c0,0,17.174,31.206,24.072,57.84H131.729z"/>
<g>
	
		<ellipse transform="matrix(-0.9555 -0.2951 0.2951 -0.9555 253.9595 430.5239)" style="fill:#FCD462;" cx="159.464" cy="196.1" rx="5.356" ry="8.607"/>
	
		<ellipse transform="matrix(-0.2951 -0.9555 0.9555 -0.2951 -42.4009 361.0134)" style="fill:#FCD462;" cx="111.971" cy="196.148" rx="8.607" ry="5.356"/>
	<path style="fill:#FCD462;" d="M160.479,180.604v-16.92h-48.034v17.163h0.168c-0.411,2.024-0.649,4.23-0.649,6.675
		c0,17.416,11.019,39.232,24.61,39.232s24.61-21.816,24.61-39.232C161.185,184.977,160.923,182.694,160.479,180.604z"/>
</g>
<path style="fill:#64798A;" d="M162.987,167.142c0,0-4.739-13.861-27.289-12.386c-22.55-1.475-27.289,12.386-27.289,12.386
	c-1.18,6.783,3.686,25.51,3.686,25.51h0.974v-18.042c0-2.148,0.574-4.299,1.862-6.018c3.262-4.353,7.03-1.45,7.03-1.45
	c6.328,6.488,13.737,5.751,13.737,5.751s7.41,0.737,13.737-5.751c0,0,3.769-2.903,7.03,1.45c1.288,1.719,1.862,3.87,1.862,6.018
	v18.042h0.974C159.301,192.652,164.167,173.925,162.987,167.142z"/>
<polygon style="fill:#EBF0F3;" points="357.154,291.53 359.542,283.729 373.469,244.124 374.274,234.301 368.61,226.018 
	339.083,226.018 331.692,236.914 341.95,291.53 "/>
<rect x="339.052" y="215.091" style="fill:#F6C358;" width="29.609" height="25.651"/>
<polygon style="fill:#E56353;" points="348.611,240.738 344.762,246.58 348.611,252.422 359.08,252.422 362.929,246.58 
	359.08,240.738 "/>
<g>
	<polygon style="fill:#E1E6E9;" points="333.417,234.302 339.083,226.018 350.683,240.701 341.327,257.093 	"/>
	<polygon style="fill:#E1E6E9;" points="375.849,233.69 368.609,226.018 357.009,240.701 365.236,255.116 	"/>
</g>
<polygon style="fill:#D15241;" points="364.065,291.53 359.081,252.422 348.611,252.422 343.625,291.53 "/>
<path style="fill:#3A556A;" d="M415.291,263.532c0,0-2.164-14.192-16.595-17.8l-5.552-1.284c-4.543-1.052-8.754-3.219-12.251-6.307
	l-5.042-4.451l-0.168,0.532l-19.389,57.308h64.395L415.291,263.532z"/>
<path style="fill:#2F4859;" d="M359.8,291.53c6.789-12.315,15.831-26.553,24.327-32.949c0,0-2.865-3.288-7.681-5.488
	c0,0,7.24-1.807,9.774-3.977c0,0-4.744-10.649-10.37-15.426c0,0-17.174,31.206-24.072,57.84H359.8z"/>
<path style="fill:#3A556A;" d="M333.997,234.222l-0.168-0.532l-5.042,4.451c-3.497,3.088-7.709,5.255-12.254,6.307l-5.55,1.284
	c-14.431,3.608-16.595,17.8-16.595,17.8l-5.397,27.998h64.395L333.997,234.222z"/>
<path style="fill:#2F4859;" d="M349.877,291.53c-6.789-12.315-15.831-26.553-24.327-32.949c0,0,2.865-3.288,7.681-5.488
	c0,0-7.24-1.807-9.774-3.977c0,0,4.744-10.649,10.37-15.426c0,0,17.174,31.206,24.072,57.84H349.877z"/>
<g>
	
		<ellipse transform="matrix(-0.9555 -0.2951 0.2951 -0.9555 680.5327 494.8695)" style="fill:#FCD462;" cx="377.605" cy="196.087" rx="5.356" ry="8.607"/>
	
		<ellipse transform="matrix(-0.2951 -0.9555 0.9555 -0.2951 240.0866 569.4354)" style="fill:#FCD462;" cx="330.098" cy="196.154" rx="8.607" ry="5.356"/>
	<path style="fill:#FCD462;" d="M378.627,180.604v-16.92h-48.034v17.163h0.168c-0.411,2.024-0.649,4.23-0.649,6.675
		c0,17.416,11.019,39.232,24.61,39.232c13.592,0,24.61-21.816,24.61-39.232C379.333,184.977,379.071,182.694,378.627,180.604z"/>
</g>
<path style="fill:#64798A;" d="M381.135,167.142c0,0-4.739-13.861-27.289-12.386c-22.55-1.475-27.289,12.386-27.289,12.386
	c-1.18,6.783,3.686,25.51,3.686,25.51h0.974v-18.042c0-2.148,0.574-4.299,1.862-6.018c3.262-4.353,7.03-1.45,7.03-1.45
	c6.328,6.488,13.737,5.751,13.737,5.751s7.41,0.737,13.737-5.751c0,0,3.769-2.903,7.03,1.45c1.288,1.719,1.862,3.87,1.862,6.018
	v18.042h0.974C377.449,192.652,382.315,173.925,381.135,167.142z"/>
<rect x="27.617" y="121.093" style="opacity:0.5;fill:#27A2DB;enable-background:new    ;" width="436.275" height="117.197"/>
<g>
	<path style="fill:#DC8744;" d="M27.618,105.752c-3.619,0-6.552,2.933-6.552,6.551v148.748H34.17V112.303
		C34.17,108.685,31.235,105.752,27.618,105.752z"/>
	<path style="fill:#DC8744;" d="M245.765,105.752c-3.617,0-6.551,2.933-6.551,6.551v148.748h13.103V112.303
		C252.317,108.685,249.384,105.752,245.765,105.752z"/>
	<path style="fill:#DC8744;" d="M463.913,105.752c-3.619,0-6.551,2.933-6.551,6.551v148.748h13.103V112.303
		C470.465,108.685,467.531,105.752,463.913,105.752z"/>
</g>
<rect x="15.657" y="271.462" style="fill:#64798A;" width="460.237" height="220.068"/>
<rect x="15.657" y="271.462" style="fill:#3A556A;" width="460.237" height="29.66"/>
<rect x="0.005" y="256.614" style="fill:#2F4859;" width="491.52" height="29.66"/>
<path style="fill:#FCD462;" d="M242.826,450.973v-9.766c-12.226-1.247-23.201-6.108-32.912-14.578l9.766-11.638
	c7.49,6.511,15.199,10.386,23.146,11.638v-25.955c-10.082-2.406-17.463-5.574-22.145-9.499c-4.682-3.925-7.022-9.744-7.022-17.458
	c0-7.714,2.689-14.023,8.089-18.933c5.4-4.905,12.422-7.578,21.078-8.024v-6.69h8.557v6.821c9.809,0.719,19.085,4.061,27.828,10.038
	l-8.699,12.308c-5.89-4.192-12.259-6.777-19.129-7.763v25.15h0.403c10.256,2.411,17.79,5.667,22.602,9.766
	c4.823,4.104,7.229,10.06,7.229,17.861c0,7.806-2.765,14.164-8.296,19.064c-5.531,4.91-12.836,7.583-21.938,8.029v9.63H242.826z
	 M233.386,364.62c-2.275,2.003-3.408,4.502-3.408,7.49c0,2.989,0.893,5.351,2.678,7.088c1.775,1.742,5.171,3.413,10.169,5.019
	v-23.146C238.808,361.431,235.662,362.612,233.386,364.62z M261.552,423.281c2.493-2.047,3.745-4.633,3.745-7.757
	c0-3.119-0.98-5.596-2.94-7.425c-1.971-1.829-5.629-3.544-10.974-5.15v24.077C255.662,426.585,259.048,425.333,261.552,423.281z"/>
<g>
</g>
<g>
</g>
<g>
</g>
<g>
</g>
<g>
</g>
<g>
</g>
<g>
</g>
<g>
</g>
<g>
</g>
<g>
</g>
<g>
</g>
<g>
</g>
<g>
</g>
<g>
</g>
<g>
</g>
</svg>
