<?xml version="1.0" encoding="iso-8859-1"?>
<!-- Generator: Adobe Illustrator 19.0.0, SVG Export Plug-In . SVG Version: 6.00 Build 0)  -->
<svg version="1.1" id="Capa_1" xmlns="http://www.w3.org/2000/svg" xmlns:xlink="http://www.w3.org/1999/xlink" x="0px" y="0px"
	 viewBox="0 0 512 512" style="enable-background:new 0 0 512 512;" xml:space="preserve">
<path style="fill:#3B4F66;" d="M454.154,512H57.846c-6.905,0-12.502-5.598-12.502-12.502V12.502C45.344,5.598,50.941,0,57.846,0
	h396.307c6.905,0,12.502,5.598,12.502,12.502v486.995C466.656,506.402,461.059,512,454.154,512z"/>
<path style="fill:#2F455B;" d="M454.155,0H396.8c6.904,0,12.501,5.597,12.501,12.501v486.998c0,6.904-5.597,12.501-12.501,12.501
	h57.355c6.904,0,12.501-5.597,12.501-12.501V12.501C466.656,5.597,461.059,0,454.155,0z"/>
<rect x="80.74" y="30.616" style="fill:#E6E9ED;" width="350.52" height="110.95"/>
<rect x="409.3" y="30.616" style="fill:#CFD2DC;" width="21.96" height="110.95"/>
<rect x="80.74" y="141.57" style="fill:#7A8593;" width="350.52" height="331.27"/>
<rect x="409.3" y="141.57" style="fill:#6D7D8C;" width="21.96" height="331.27"/>
<g>
	<path style="fill:#77D057;" d="M375.256,358.001H306.25c-4.353,0-7.882-3.529-7.882-7.882s3.528-7.882,7.882-7.882h69.006
		c4.353,0,7.882,3.529,7.882,7.882C383.138,354.473,379.61,358.001,375.256,358.001z"/>
	<path style="fill:#77D057;" d="M375.256,387.021h-33.032c-4.353,0-7.882-3.529-7.882-7.882s3.528-7.882,7.882-7.882h33.032
		c4.353,0,7.882,3.529,7.882,7.882S379.61,387.021,375.256,387.021z"/>
</g>
<g>
	<path style="fill:#EA5D55;" d="M178.913,113.941c0-0.174,0.057-0.492,0.174-0.957L195.27,59.91c0.464-1.45,1.523-2.567,3.175-3.35
		c1.653-0.783,3.553-1.175,5.7-1.175c2.145,0,4.046,0.392,5.699,1.175c1.652,0.783,2.71,1.901,3.175,3.35l16.27,53.074
		c0.116,0.465,0.174,0.783,0.174,0.957c0,1.509-0.944,2.814-2.828,3.915c-1.885,1.103-3.843,1.653-5.872,1.653
		c-2.495,0-3.974-0.84-4.438-2.523l-2.959-10.876H195.01l-2.959,10.876c-0.465,1.683-1.944,2.523-4.438,2.523
		c-2.031,0-3.988-0.551-5.873-1.653C179.855,116.755,178.913,115.45,178.913,113.941z M197.794,95.669h12.702l-6.35-23.318
		L197.794,95.669z"/>
	<path style="fill:#EA5D55;" d="M225.027,61.74c0-1.577,0.348-2.943,1.045-4.099c0.696-1.156,1.71-1.733,3.045-1.733h37.587
		c1.334,0,2.349,0.578,3.045,1.733c0.697,1.156,1.045,2.522,1.045,4.099c0,1.691-0.363,3.113-1.088,4.269
		c-0.726,1.156-1.726,1.732-3.002,1.732h-12.007v47.564c0,1.343-0.667,2.381-2.001,3.111s-2.929,1.094-4.784,1.094
		c-1.858,0-3.452-0.364-4.785-1.094c-1.335-0.73-2.001-1.767-2.001-3.111V67.74h-12.007c-1.277,0-2.277-0.576-3.002-1.732
		C225.389,64.853,225.027,63.43,225.027,61.74z"/>
	<path style="fill:#EA5D55;" d="M276.186,115.333v-52.64c0-2.319,0.653-4.031,1.958-5.133c1.304-1.101,2.915-1.653,4.829-1.653
		c2.61,0,4.597,0.392,5.96,1.175c1.362,0.783,2.885,2.653,4.568,5.612l8.961,15.662l8.961-15.662
		c1.682-2.958,3.205-4.829,4.568-5.612s3.35-1.175,5.96-1.175c1.914,0,3.523,0.552,4.829,1.653c1.305,1.103,1.958,2.815,1.958,5.133
		v52.639c0,1.335-0.668,2.364-2.001,3.089c-1.335,0.726-2.93,1.088-4.785,1.088c-1.858,0-3.452-0.362-4.785-1.088
		c-1.335-0.725-2.001-1.753-2.001-3.089V82.705l-8.353,14.269c-0.987,1.683-2.495,2.523-4.525,2.523
		c-1.972,0-3.393-0.84-4.263-2.523l-8.265-15.139v33.497c0,1.335-0.667,2.364-2.001,3.089c-1.335,0.726-2.93,1.088-4.785,1.088
		c-1.857,0-3.451-0.362-4.785-1.088C276.852,117.697,276.186,116.668,276.186,115.333z"/>
</g>
<path style="fill:#00C0F4;" d="M370.511,321.715H141.489c-2.621,0-4.746-2.125-4.746-4.746V181.873c0-2.621,2.125-4.746,4.746-4.746
	H370.51c2.621,0,4.746,2.125,4.746,4.746V316.97C375.256,319.59,373.132,321.715,370.511,321.715z"/>
<path style="fill:#3B4F66;" d="M374.725,442.583H253.538c-3.158,0-5.717-2.56-5.717-5.717v-22.99c0-3.158,2.56-5.717,5.717-5.717
	h121.187c3.158,0,5.717,2.56,5.717,5.717v22.99C380.442,440.023,377.883,442.583,374.725,442.583z"/>
<g>
	<circle style="fill:#FFFFFF;" cx="109.13" cy="195.42" r="7.882"/>
	<circle style="fill:#FFFFFF;" cx="109.13" cy="229.56" r="7.882"/>
	<circle style="fill:#FFFFFF;" cx="109.13" cy="265.92" r="7.882"/>
	<circle style="fill:#FFFFFF;" cx="109.13" cy="302.27" r="7.882"/>
	<circle style="fill:#FFFFFF;" cx="402.58" cy="195.59" r="7.882"/>
	<circle style="fill:#FFFFFF;" cx="402.58" cy="229.73" r="7.882"/>
	<circle style="fill:#FFFFFF;" cx="402.58" cy="266.09" r="7.882"/>
	<circle style="fill:#FFFFFF;" cx="402.58" cy="302.45" r="7.882"/>
</g>
<circle style="fill:#77D057;" cx="306.25" cy="379.14" r="7.882"/>
<g>
	<circle style="fill:#FFFFFF;" cx="150.6" cy="352.92" r="7.882"/>
	<circle style="fill:#FFFFFF;" cx="178.49" cy="352.92" r="7.882"/>
	<circle style="fill:#FFFFFF;" cx="206.53" cy="352.92" r="7.882"/>
	<circle style="fill:#FFFFFF;" cx="150.6" cy="379.14" r="7.882"/>
	<circle style="fill:#FFFFFF;" cx="178.49" cy="379.14" r="7.882"/>
	<circle style="fill:#FFFFFF;" cx="206.53" cy="379.14" r="7.882"/>
	<circle style="fill:#FFFFFF;" cx="150.6" cy="405.36" r="7.882"/>
	<circle style="fill:#FFFFFF;" cx="178.49" cy="405.36" r="7.882"/>
	<circle style="fill:#FFFFFF;" cx="178.49" cy="431.57" r="7.882"/>
	<circle style="fill:#FFFFFF;" cx="206.53" cy="405.36" r="7.882"/>
</g>
<path style="fill:#6186E4;" d="M353.17,213.248h-36.013c-1.671,0-3.025-1.354-3.025-3.025v-11.712c0-1.671,1.354-3.025,3.025-3.025
	h36.013c1.671,0,3.025,1.354,3.025,3.025v11.712C356.195,211.893,354.84,213.248,353.17,213.248z"/>
<g>
	<path style="fill:#0084CB;" d="M271.7,209.777H160.481c-1.671,0-3.025-1.354-3.025-3.025v-4.77c0-1.671,1.354-3.025,3.025-3.025
		H271.7c1.671,0,3.025,1.354,3.025,3.025v4.77C274.725,208.423,273.371,209.777,271.7,209.777z"/>
	<path style="fill:#0084CB;" d="M205.193,237.614h-44.712c-1.671,0-3.025-1.354-3.025-3.025v-4.77c0-1.671,1.354-3.025,3.025-3.025
		h44.712c1.671,0,3.025,1.354,3.025,3.025v4.77C208.219,236.26,206.864,237.614,205.193,237.614z"/>
</g>
<g>
	<path style="fill:#6186E4;" d="M353.17,244.006h-36.013c-1.671,0-3.025-1.354-3.025-3.025v-11.712c0-1.671,1.354-3.025,3.025-3.025
		h36.013c1.671,0,3.025,1.354,3.025,3.025v11.712C356.195,242.652,354.84,244.006,353.17,244.006z"/>
	<path style="fill:#6186E4;" d="M353.17,274.331h-36.013c-1.671,0-3.025-1.354-3.025-3.025v-11.712c0-1.671,1.354-3.025,3.025-3.025
		h36.013c1.671,0,3.025,1.354,3.025,3.025v11.712C356.195,272.977,354.84,274.331,353.17,274.331z"/>
	<path style="fill:#6186E4;" d="M353.17,303.357h-36.013c-1.671,0-3.025-1.354-3.025-3.025V288.62c0-1.671,1.354-3.025,3.025-3.025
		h36.013c1.671,0,3.025,1.354,3.025,3.025v11.712C356.195,302.002,354.84,303.357,353.17,303.357z"/>
</g>
<g>
</g>
<g>
</g>
<g>
</g>
<g>
</g>
<g>
</g>
<g>
</g>
<g>
</g>
<g>
</g>
<g>
</g>
<g>
</g>
<g>
</g>
<g>
</g>
<g>
</g>
<g>
</g>
<g>
</g>
</svg>
