<svg xmlns="http://www.w3.org/2000/svg" xmlns:xlink="http://www.w3.org/1999/xlink" version="1.1" width="150" height="150" style="enable-background:new 0 0 612.25 612.25;" xml:space="preserve"><rect id="backgroundrect" width="100%" height="100%" x="0" y="0" fill="none" stroke="none" class="" style=""/>
















<g class="currentLayer" style=""><title>Layer 1</title><g id="svg_1" class="selected">
	<g id="svg_2">
		<polygon points="-0.7083517909049988,57.11782455444336 -0.7083517909049988,67.03981018066406 73.62499893574376,10.755012512207031 147.95835648320318,67.03981018066406 147.95835648320318,57.11782455444336 73.62499893574376,0.8329925537109375 " id="svg_3"/>
		<polygon points="134.4430458968449,39.63498306274414 134.4430458968449,4.1997785568237305 114.17043819731215,4.1997785568237305 114.17043819731215,24.044050216674805 120.92822034590962,29.812030792236328 120.92822034590962,10.814691543579102 127.68575624575386,10.814691543579102 127.68575624575386,33.96615982055664 " id="svg_4"/>
		<polygon points="100.85116400477399,139.80165100097656 100.85116400477399,146.4163360595703 134.49063906496886,146.4163360595703 134.49063906496886,66.18640899658203 127.73285691637138,60.90143966674805 127.73285691637138,139.80165100097656 " id="svg_5"/>
		<path d="M53.35215706680091,146.35700163721017 h40.54544230749292 V80.20973787374663 H53.35215706680091 V146.35700163721017 zM60.109933217590566,86.82441669326778 h27.03037584481161 v52.91790612442126 H60.109933217590566 V86.82441669326778 z" id="svg_6"/>
		<polygon points="12.806717851774994,66.43775177001953 12.806717851774994,146.4163360595703 46.45956403271806,146.4163360595703 46.45956403271806,139.80165100097656 19.56449533657032,139.80165100097656 19.56449533657032,61.080013275146484 " id="svg_7"/>
	</g>
</g><g id="svg_8" class="">
</g><g id="svg_9" class="">
</g><g id="svg_10" class="">
</g><g id="svg_11" class="">
</g><g id="svg_12" class="">
</g><g id="svg_13" class="">
</g><g id="svg_14" class="">
</g><g id="svg_15" class="">
</g><g id="svg_16" class="">
</g><g id="svg_17" class="">
</g><g id="svg_18" class="">
</g><g id="svg_19" class="">
</g><g id="svg_20" class="">
</g><g id="svg_21" class="">
</g><g id="svg_22" class="">
</g></g></svg>