<?xml version="1.0" encoding="iso-8859-1"?>
<!-- Generator: Adobe Illustrator 19.0.0, SVG Export Plug-In . SVG Version: 6.00 Build 0)  -->
<svg version="1.1" id="Capa_1" xmlns="http://www.w3.org/2000/svg" xmlns:xlink="http://www.w3.org/1999/xlink" x="0px" y="0px"
	 viewBox="0 0 512 512" style="enable-background:new 0 0 512 512;" xml:space="preserve">
<path style="fill:#FE9923;" d="M66.244,245.288l-31.963-38.335c-24.99-30-23.027-73.433,4.6-101.06l25.107-25.122
	c14.06-14.06,35.163,7.184,21.27,21.182l-24.961,24.946c-16.787,16.787-17.959,42.847-2.988,60.835l31.963,38.35
	c17.448,20.938,48.249,21.185,66.416,3.018l17.432-17.432c13.945-13.945,35.271,7.151,21.211,21.211l-17.432,17.432
	C145.722,281.521,94.428,279.151,66.244,245.288z"/>
<path style="fill:#FEA832;" d="M451,60H61c-12.599,0-19.501,14.7-11.7,24.6L196,260.4v236.493c0,11.999,13.2,19.2,23.401,12.599
	l36.599-24.3l53.401-35.7c4.199-2.999,6.599-7.5,6.599-12.599V260.4L462.4,84.6C470.799,74.7,463.599,60,451,60z"/>
<path style="fill:#FEDB41;" d="M481,0H31c-8.401,0-15,6.599-15,15v30c0,24.899,20.099,45,45,45h390c24.901,0,45-20.101,45-45V15
	C496,6.599,489.401,0,481,0z"/>
<path style="fill:#FE9923;" d="M462.4,84.6L316,260.4v176.493c0,5.099-2.401,9.6-6.599,12.599L256,485.192V60h195
	C463.599,60,470.799,74.7,462.4,84.6z"/>
<path style="fill:#FFC229;" d="M496,15v30c0,24.899-20.099,45-45,45H256V0h225C489.401,0,496,6.599,496,15z"/>
<g>
</g>
<g>
</g>
<g>
</g>
<g>
</g>
<g>
</g>
<g>
</g>
<g>
</g>
<g>
</g>
<g>
</g>
<g>
</g>
<g>
</g>
<g>
</g>
<g>
</g>
<g>
</g>
<g>
</g>
</svg>
