<?xml version="1.0" encoding="utf-8"?>
<!-- Generator: Adobe Illustrator 16.0.0, SVG Export Plug-In . SVG Version: 6.00 Build 0)  -->
<!DOCTYPE svg PUBLIC "-//W3C//DTD SVG 1.1//EN" "http://www.w3.org/Graphics/SVG/1.1/DTD/svg11.dtd">
<svg version="1.1" id="Layer_1" xmlns="http://www.w3.org/2000/svg" xmlns:xlink="http://www.w3.org/1999/xlink" x="0px" y="0px"
	 width="190px" height="161px" viewBox="0 0 190 161" enable-background="new 0 0 190 161" xml:space="preserve">
<path fill="#FFDD00" d="M87.181,152.022h-38.24l-0.56-26.56c-16.6-10.881-26.4-27.44-26.4-44.92c0-0.2,0-0.44,0-0.641H9.101v-12.8
	h13.44c2.64-28.56,15.96-56.4,70-56.4c0.68,0,21.28,0.04,21.28,0.04v12.8c0,0-20.603-0.04-21.28-0.04
	c-47.92,0-57.76,22.8-57.76,57.08c0,13.961,8.64,27.32,23.16,35.801l3.08,1.8l0.44,21.12h16.32c0.76-2.721,1.52-5.96,1.72-8.16
	l0.56-5.8h5.84c0,0,16.28,0.04,18.04,0.04h3.961l6.879,13.8h12.561v-22.76l2.84-1.88c6.28-4.2,11.4-9.48,14.881-15.28l1.639-2.761
	l24.841-2.479v-18.04l-22-9.32l-3.44-3.399l-6.56-6.16v-9.2h12.8v3.64l4.359,4.16l27.601,11.68v38.08l-30.08,3
	c-3.68,5.439-8.521,10.4-14.12,14.56v28.841h-33.279l-6.881-13.761c-2.56,0-5.918,0-8.72-0.04c-1,4.52-2.399,8.881-2.601,9.52
	L87.181,152.022z M152.341,36.063h-12.8v-12.84h-12.88v-12.8h25.68V36.063z M126.661,57.783c0-5.32-4.32-9.64-9.641-9.64
	c-5.322,0-9.642,4.32-9.642,9.64c0,5.32,4.317,9.64,9.642,9.64C122.341,67.463,126.661,63.143,126.661,57.783"/>
</svg>
